# xmcd
#
# Track frame offsets: 
#        150
#        17741
#        30887
#        47064
#        62220
#        80312
#        95986
#        114827
#        132722
#        151028
#        167167
#
# Disc length: 2453 seconds
#
# Revision: 0
# Processed by: cddbd v1.5.2PL0 Copyright (c) Steve Scherf et al.
# Submitted via: ExactAudioCopy v0.99pb3
#
DISCID=8509930b
DTITLE=Taylor Swift - Taylor Swift
DYEAR=2006
DGENRE=Country
TTITLE0=Tim McGraw
TTITLE1=Picture to Burn
TTITLE2=Teardrops on my Guitar
TTITLE3=A Place in This World
TTITLE4=Cold As You
TTITLE5=The Outside
TTITLE6=Tied Together With a Smile
TTITLE7=Stay Beautiful
TTITLE8=Should've Said No
TTITLE9=Mary's Song (Oh My My My)
TTITLE10=Our Song
EXTD=
EXTT0=
EXTT1=
EXTT2=
EXTT3=
EXTT4=
EXTT5=
EXTT6=
EXTT7=
EXTT8=
EXTT9=
EXTT10=
PLAYORDER=
